# xmcd
#
# Track frame offsets:
#  150
#  17688
#  41016
#  59806
#  86382
#  102484
#  123558
#  138297
#  152256
#  165513
#
# Disc length: 2446 seconds
#
# Revision: 0
# Processed by: cddbd v1.5.1PL2 Copyright (c) Steve Scherf et al.
# Submitted via: AltoMP3_Maker 3.0
#
DISCID=7b098c0a
DTITLE=Rock-N-Van - Ready or not
DYEAR=1900
DGENRE=
TTITLE0=Ready or Not
TTITLE1=The Eagle Flies
TTITLE2=There's a New Kitten in Town
TTITLE3=Goodbye Charlene
TTITLE4=Lighten Up
TTITLE5=hey, Rock -n- Roller
TTITLE6=Hold On
TTITLE7=Shotgun Willie
TTITLE8=Chips -n- Dip
TTITLE9=Just what I Do
EXTD=
EXTT0=
EXTT1=
EXTT2=
EXTT3=
EXTT4=
EXTT5=
EXTT6=
EXTT7=
EXTT8=
EXTT9=
PLAYORDER=
